<svg width="120" height="53" viewBox="0 0 120 53" fill="none" xmlns="http://www.w3.org/2000/svg">
<mask id="path-1-outside-1_330_249" maskUnits="userSpaceOnUse" x="-0.140625" y="-0.408691" width="120" height="54" fill="black">
<rect fill="white" x="-0.140625" y="-0.408691" width="120" height="54"/>
<path d="M26.6626 50.5913C26.9377 49.2583 27.0752 48.2004 27.0752 47.4175C27.0752 46.6134 27.054 46.0104 27.0117 45.6084C26.9906 45.2064 26.9482 44.7832 26.8848 44.3389C26.8424 43.8734 26.779 43.3656 26.6943 42.8154C26.6309 42.2441 26.5674 41.5882 26.5039 40.8477C26.0173 35.7907 24.2928 31.633 21.3306 28.3745C20.0187 26.9357 18.6011 25.846 17.0776 25.1055C15.5542 24.3438 14.2952 23.9629 13.3008 23.9629C12.3275 23.9629 11.5763 24.0264 11.0474 24.1533C9.86247 27.708 9.27002 31.4214 9.27002 35.2935C9.27002 38.7212 9.44987 41.2814 9.80957 42.9741C10.3809 45.5132 11.259 48.0628 12.4438 50.623H2.9541C3.46191 49.3535 3.71582 46.6875 3.71582 42.625C3.71582 38.5413 4.02262 34.7327 4.63623 31.1992C5.24984 27.6445 6.04329 24.4813 7.0166 21.7095C8.01107 18.9377 9.11133 16.515 10.3174 14.4414C11.5446 12.3467 12.7612 10.527 13.9673 8.98242C15.1945 7.41667 16.3477 6.08366 17.4268 4.9834C18.5059 3.86198 19.4051 2.87809 20.1245 2.03174H30.1221C29.2122 3.06852 28.7573 4.5179 28.7573 6.37988C28.7573 7.22624 28.8949 8.61214 29.1699 10.5376L29.9634 16.314C32.8621 36.2879 35.4541 47.7137 37.7393 50.5913H26.6626ZM12.3486 20.7891C13.1738 20.4717 14.0413 20.313 14.9512 20.313C15.861 20.313 16.6756 20.3765 17.395 20.5034C18.1356 20.6304 18.8656 20.842 19.585 21.1382C21.1296 21.7306 22.4202 22.6722 23.457 23.9629C22.4202 18.5251 21.7855 15.2031 21.5527 13.9971L20.4419 8.44287L18.6328 10.6011C16.0938 13.6479 13.999 17.0439 12.3486 20.7891ZM63.5425 50.5913C63.8175 49.2583 63.9551 48.2004 63.9551 47.4175C63.9551 46.6134 63.9339 46.0104 63.8916 45.6084C63.8704 45.2064 63.8281 44.7832 63.7646 44.3389C63.7223 43.8734 63.6589 43.3656 63.5742 42.8154C63.5107 42.2441 63.4473 41.5882 63.3838 40.8477C62.8971 35.7907 61.1727 31.633 58.2104 28.3745C56.8986 26.9357 55.481 25.846 53.9575 25.1055C52.4341 24.3438 51.1751 23.9629 50.1807 23.9629C49.2074 23.9629 48.4562 24.0264 47.9272 24.1533C46.7424 27.708 46.1499 31.4214 46.1499 35.2935C46.1499 38.7212 46.3298 41.2814 46.6895 42.9741C47.2607 45.5132 48.1388 48.0628 49.3237 50.623H39.834C40.3418 49.3535 40.5957 46.6875 40.5957 42.625C40.5957 38.5413 40.9025 34.7327 41.5161 31.1992C42.1297 27.6445 42.9232 24.4813 43.8965 21.7095C44.891 18.9377 45.9912 16.515 47.1973 14.4414C48.4245 12.3467 49.6411 10.527 50.8472 8.98242C52.0744 7.41667 53.2275 6.08366 54.3066 4.9834C55.3857 3.86198 56.285 2.87809 57.0044 2.03174H67.002C66.0921 3.06852 65.6372 4.5179 65.6372 6.37988C65.6372 7.22624 65.7747 8.61214 66.0498 10.5376L66.8433 16.314C69.742 36.2879 72.334 47.7137 74.6191 50.5913H63.5425ZM49.2285 20.7891C50.0537 20.4717 50.9212 20.313 51.8311 20.313C52.7409 20.313 53.5555 20.3765 54.2749 20.5034C55.0155 20.6304 55.7454 20.842 56.4648 21.1382C58.0094 21.7306 59.3001 22.6722 60.3369 23.9629C59.3001 18.5251 58.6654 15.2031 58.4326 13.9971L57.3218 8.44287L55.5127 10.6011C52.9736 13.6479 50.8789 17.0439 49.2285 20.7891ZM100.486 9.0459C100.909 8.15723 101.226 7.27913 101.438 6.41162C101.671 5.54411 101.787 4.70833 101.787 3.9043C101.787 3.0791 101.628 2.44434 101.311 2H111.118C110.632 2.69824 110.219 3.47054 109.88 4.31689L108.706 7.20508C106.781 11.86 103.977 15.3618 100.295 17.7104C100.528 24.7775 102.041 31.4425 104.834 37.7056C107.352 43.4396 110.314 47.7349 113.721 50.5913H102.771C99.8299 47.4598 97.7458 41.7681 96.5186 33.5161C96.0531 30.4904 95.6616 26.9357 95.3442 22.8521C95.2596 21.7729 94.9316 20.9478 94.3604 20.3765C93.8102 19.784 93.0273 19.4878 92.0117 19.4878C90.9961 19.4878 90.2873 19.583 89.8853 19.7734C89.4832 19.9639 89.1764 20.2495 88.9648 20.6304C88.6051 21.2863 88.4253 22.8097 88.4253 25.2007C88.4253 38.9751 88.7638 46.9943 89.4409 49.2583C89.5679 49.6815 89.7266 50.1258 89.917 50.5913H79.2847C79.9618 48.9832 80.3532 47.6396 80.459 46.5605C80.5859 45.4814 80.6917 44.3283 80.7764 43.1011C80.9456 40.6043 81.0303 37.2507 81.0303 33.04C81.0303 27.9831 80.9456 23.3493 80.7764 19.1387L80.4272 10.4106C80.3003 7.21566 79.8983 4.96224 79.2212 3.65039C78.9461 3.12142 78.6076 2.58187 78.2056 2.03174H90.647C89.8006 3.132 89.2505 4.1582 88.9966 5.11035C88.6157 6.65495 88.4253 8.19954 88.4253 9.74414C88.4253 11.2676 88.457 12.3678 88.5205 13.0449C88.584 13.722 88.7321 14.2827 88.9648 14.7271C89.4515 15.5734 90.319 16.0072 91.5674 16.0283C92.8158 16.0283 93.8525 15.8379 94.6777 15.457C95.5241 15.055 96.307 14.526 97.0264 13.8701C97.7458 13.2142 98.4017 12.4736 98.9941 11.6484C99.5866 10.8021 100.084 9.93457 100.486 9.0459Z"/>
</mask>
<path d="M26.6626 50.5913C26.9377 49.2583 27.0752 48.2004 27.0752 47.4175C27.0752 46.6134 27.054 46.0104 27.0117 45.6084C26.9906 45.2064 26.9482 44.7832 26.8848 44.3389C26.8424 43.8734 26.779 43.3656 26.6943 42.8154C26.6309 42.2441 26.5674 41.5882 26.5039 40.8477C26.0173 35.7907 24.2928 31.633 21.3306 28.3745C20.0187 26.9357 18.6011 25.846 17.0776 25.1055C15.5542 24.3438 14.2952 23.9629 13.3008 23.9629C12.3275 23.9629 11.5763 24.0264 11.0474 24.1533C9.86247 27.708 9.27002 31.4214 9.27002 35.2935C9.27002 38.7212 9.44987 41.2814 9.80957 42.9741C10.3809 45.5132 11.259 48.0628 12.4438 50.623H2.9541C3.46191 49.3535 3.71582 46.6875 3.71582 42.625C3.71582 38.5413 4.02262 34.7327 4.63623 31.1992C5.24984 27.6445 6.04329 24.4813 7.0166 21.7095C8.01107 18.9377 9.11133 16.515 10.3174 14.4414C11.5446 12.3467 12.7612 10.527 13.9673 8.98242C15.1945 7.41667 16.3477 6.08366 17.4268 4.9834C18.5059 3.86198 19.4051 2.87809 20.1245 2.03174H30.1221C29.2122 3.06852 28.7573 4.5179 28.7573 6.37988C28.7573 7.22624 28.8949 8.61214 29.1699 10.5376L29.9634 16.314C32.8621 36.2879 35.4541 47.7137 37.7393 50.5913H26.6626ZM12.3486 20.7891C13.1738 20.4717 14.0413 20.313 14.9512 20.313C15.861 20.313 16.6756 20.3765 17.395 20.5034C18.1356 20.6304 18.8656 20.842 19.585 21.1382C21.1296 21.7306 22.4202 22.6722 23.457 23.9629C22.4202 18.5251 21.7855 15.2031 21.5527 13.9971L20.4419 8.44287L18.6328 10.6011C16.0938 13.6479 13.999 17.0439 12.3486 20.7891ZM63.5425 50.5913C63.8175 49.2583 63.9551 48.2004 63.9551 47.4175C63.9551 46.6134 63.9339 46.0104 63.8916 45.6084C63.8704 45.2064 63.8281 44.7832 63.7646 44.3389C63.7223 43.8734 63.6589 43.3656 63.5742 42.8154C63.5107 42.2441 63.4473 41.5882 63.3838 40.8477C62.8971 35.7907 61.1727 31.633 58.2104 28.3745C56.8986 26.9357 55.481 25.846 53.9575 25.1055C52.4341 24.3438 51.1751 23.9629 50.1807 23.9629C49.2074 23.9629 48.4562 24.0264 47.9272 24.1533C46.7424 27.708 46.1499 31.4214 46.1499 35.2935C46.1499 38.7212 46.3298 41.2814 46.6895 42.9741C47.2607 45.5132 48.1388 48.0628 49.3237 50.623H39.834C40.3418 49.3535 40.5957 46.6875 40.5957 42.625C40.5957 38.5413 40.9025 34.7327 41.5161 31.1992C42.1297 27.6445 42.9232 24.4813 43.8965 21.7095C44.891 18.9377 45.9912 16.515 47.1973 14.4414C48.4245 12.3467 49.6411 10.527 50.8472 8.98242C52.0744 7.41667 53.2275 6.08366 54.3066 4.9834C55.3857 3.86198 56.285 2.87809 57.0044 2.03174H67.002C66.0921 3.06852 65.6372 4.5179 65.6372 6.37988C65.6372 7.22624 65.7747 8.61214 66.0498 10.5376L66.8433 16.314C69.742 36.2879 72.334 47.7137 74.6191 50.5913H63.5425ZM49.2285 20.7891C50.0537 20.4717 50.9212 20.313 51.8311 20.313C52.7409 20.313 53.5555 20.3765 54.2749 20.5034C55.0155 20.6304 55.7454 20.842 56.4648 21.1382C58.0094 21.7306 59.3001 22.6722 60.3369 23.9629C59.3001 18.5251 58.6654 15.2031 58.4326 13.9971L57.3218 8.44287L55.5127 10.6011C52.9736 13.6479 50.8789 17.0439 49.2285 20.7891ZM100.486 9.0459C100.909 8.15723 101.226 7.27913 101.438 6.41162C101.671 5.54411 101.787 4.70833 101.787 3.9043C101.787 3.0791 101.628 2.44434 101.311 2H111.118C110.632 2.69824 110.219 3.47054 109.88 4.31689L108.706 7.20508C106.781 11.86 103.977 15.3618 100.295 17.7104C100.528 24.7775 102.041 31.4425 104.834 37.7056C107.352 43.4396 110.314 47.7349 113.721 50.5913H102.771C99.8299 47.4598 97.7458 41.7681 96.5186 33.5161C96.0531 30.4904 95.6616 26.9357 95.3442 22.8521C95.2596 21.7729 94.9316 20.9478 94.3604 20.3765C93.8102 19.784 93.0273 19.4878 92.0117 19.4878C90.9961 19.4878 90.2873 19.583 89.8853 19.7734C89.4832 19.9639 89.1764 20.2495 88.9648 20.6304C88.6051 21.2863 88.4253 22.8097 88.4253 25.2007C88.4253 38.9751 88.7638 46.9943 89.4409 49.2583C89.5679 49.6815 89.7266 50.1258 89.917 50.5913H79.2847C79.9618 48.9832 80.3532 47.6396 80.459 46.5605C80.5859 45.4814 80.6917 44.3283 80.7764 43.1011C80.9456 40.6043 81.0303 37.2507 81.0303 33.04C81.0303 27.9831 80.9456 23.3493 80.7764 19.1387L80.4272 10.4106C80.3003 7.21566 79.8983 4.96224 79.2212 3.65039C78.9461 3.12142 78.6076 2.58187 78.2056 2.03174H90.647C89.8006 3.132 89.2505 4.1582 88.9966 5.11035C88.6157 6.65495 88.4253 8.19954 88.4253 9.74414C88.4253 11.2676 88.457 12.3678 88.5205 13.0449C88.584 13.722 88.7321 14.2827 88.9648 14.7271C89.4515 15.5734 90.319 16.0072 91.5674 16.0283C92.8158 16.0283 93.8525 15.8379 94.6777 15.457C95.5241 15.055 96.307 14.526 97.0264 13.8701C97.7458 13.2142 98.4017 12.4736 98.9941 11.6484C99.5866 10.8021 100.084 9.93457 100.486 9.0459Z" fill="black"/>
<path d="M26.6626 50.5913L24.7039 50.1871L24.2078 52.5913H26.6626V50.5913ZM27.0117 45.6084L25.0145 45.7135L25.0172 45.7658L25.0227 45.8178L27.0117 45.6084ZM26.8848 44.3389L24.893 44.5199L24.8976 44.571L24.9049 44.6217L26.8848 44.3389ZM26.6943 42.8154L24.7066 43.0363L24.7112 43.078L24.7176 43.1195L26.6943 42.8154ZM26.5039 40.8477L28.4966 40.6769L28.4957 40.6665L28.4947 40.6561L26.5039 40.8477ZM21.3306 28.3745L22.8104 27.0292L22.8085 27.027L21.3306 28.3745ZM17.0776 25.1055L16.1832 26.8943L16.1932 26.8993L16.2033 26.9042L17.0776 25.1055ZM11.0474 24.1533L10.5806 22.2085L9.50107 22.4676L9.15 23.5209L11.0474 24.1533ZM9.80957 42.9741L7.85325 43.3898L7.85573 43.4015L7.85835 43.4131L9.80957 42.9741ZM12.4438 50.623V52.623H15.5733L14.2589 49.783L12.4438 50.623ZM2.9541 50.623L1.09715 49.8803L3.56436e-05 52.623H2.9541V50.623ZM4.63623 31.1992L6.60674 31.5414L6.60708 31.5394L4.63623 31.1992ZM7.0166 21.7095L5.13405 21.0341L5.12956 21.0468L7.0166 21.7095ZM10.3174 14.4414L8.59172 13.4304L8.58855 13.4359L10.3174 14.4414ZM13.9673 8.98242L12.3932 7.74866L12.3909 7.75155L13.9673 8.98242ZM17.4268 4.9834L18.8546 6.38382L18.8613 6.37702L18.8679 6.37016L17.4268 4.9834ZM20.1245 2.03174V0.0317383H19.1996L18.6006 0.736443L20.1245 2.03174ZM30.1221 2.03174L31.6253 3.35092L34.5381 0.0317383H30.1221V2.03174ZM29.1699 10.5376L31.1513 10.2654L31.1498 10.2548L29.1699 10.5376ZM29.9634 16.314L27.982 16.5861L27.983 16.5937L27.9841 16.6012L29.9634 16.314ZM37.7393 50.5913V52.5913H41.8814L39.3055 49.3475L37.7393 50.5913ZM12.3486 20.7891L10.5185 19.9825L8.58 24.3814L13.0666 22.6558L12.3486 20.7891ZM17.395 20.5034L17.0474 22.473L17.0571 22.4747L17.395 20.5034ZM19.585 21.1382L18.8235 22.9875L18.846 22.9968L18.8687 23.0055L19.585 21.1382ZM23.457 23.9629L21.8978 25.2154L25.4216 23.5883L23.457 23.9629ZM21.5527 13.9971L23.5165 13.6181L23.5139 13.6048L21.5527 13.9971ZM20.4419 8.44287L22.4031 8.05064L21.5859 3.96478L18.9092 7.15807L20.4419 8.44287ZM18.6328 10.6011L17.1001 9.31627L17.0964 9.32071L18.6328 10.6011ZM26.6626 50.5913L28.6213 50.9955C28.9069 49.6115 29.0752 48.4 29.0752 47.4175H27.0752H25.0752C25.0752 48.0007 24.9684 48.9051 24.7039 50.1871L26.6626 50.5913ZM27.0752 47.4175H29.0752C29.0752 46.5975 29.0544 45.9091 29.0007 45.399L27.0117 45.6084L25.0227 45.8178C25.0537 46.1118 25.0752 46.6293 25.0752 47.4175H27.0752ZM27.0117 45.6084L29.009 45.5033C28.9843 45.0355 28.9356 44.5527 28.8647 44.056L26.8848 44.3389L24.9049 44.6217C24.9609 45.0137 24.9968 45.3773 25.0145 45.7135L27.0117 45.6084ZM26.8848 44.3389L28.8766 44.1578C28.8299 43.6443 28.7609 43.0949 28.6711 42.5113L26.6943 42.8154L24.7176 43.1195C24.7971 43.6363 24.855 44.1025 24.893 44.5199L26.8848 44.3389ZM26.6943 42.8154L28.6821 42.5946C28.6209 42.0439 28.559 41.4053 28.4966 40.6769L26.5039 40.8477L24.5112 41.0185C24.5757 41.7712 24.6408 42.4444 24.7066 43.0363L26.6943 42.8154ZM26.5039 40.8477L28.4947 40.6561C27.9733 35.2382 26.1063 30.6546 22.8104 27.0292L21.3306 28.3745L19.8507 29.7199C22.4794 32.6114 24.0612 36.3432 24.5131 41.0392L26.5039 40.8477ZM21.3306 28.3745L22.8085 27.027C21.3511 25.4286 19.7348 24.1734 17.952 23.3067L17.0776 25.1055L16.2033 26.9042C17.4673 27.5187 18.6863 28.4428 19.8527 29.722L21.3306 28.3745ZM17.0776 25.1055L17.9721 23.3166C16.3425 22.5019 14.7531 21.9629 13.3008 21.9629V23.9629V25.9629C13.8374 25.9629 14.7659 26.1856 16.1832 26.8943L17.0776 25.1055ZM13.3008 23.9629V21.9629C12.2728 21.9629 11.3375 22.0269 10.5806 22.2085L11.0474 24.1533L11.5141 26.0981C11.8152 26.0258 12.3821 25.9629 13.3008 25.9629V23.9629ZM11.0474 24.1533L9.15 23.5209C7.89487 27.2863 7.27002 31.2137 7.27002 35.2935H9.27002H11.27C11.27 31.6291 11.8301 28.1298 12.9447 24.7858L11.0474 24.1533ZM9.27002 35.2935H7.27002C7.27002 38.753 7.44842 41.4847 7.85325 43.3898L9.80957 42.9741L11.7659 42.5584C11.4513 41.0781 11.27 38.6894 11.27 35.2935H9.27002ZM9.80957 42.9741L7.85835 43.4131C8.46319 46.1013 9.38939 48.785 10.6288 51.4631L12.4438 50.623L14.2589 49.783C13.1285 47.3406 12.2985 44.9251 11.7608 42.5351L9.80957 42.9741ZM12.4438 50.623V48.623H2.9541V50.623V52.623H12.4438V50.623ZM2.9541 50.623L4.81105 51.3658C5.1748 50.4565 5.38516 49.2389 5.51638 47.861C5.65155 46.4417 5.71582 44.6908 5.71582 42.625H3.71582H1.71582C1.71582 44.6217 1.65313 46.2351 1.5344 47.4818C1.41172 48.7699 1.24122 49.5201 1.09715 49.8803L2.9541 50.623ZM3.71582 42.625H5.71582C5.71582 38.6406 6.01523 34.9477 6.60674 31.5414L4.63623 31.1992L2.66572 30.857C2.03001 34.5178 1.71582 38.4421 1.71582 42.625H3.71582ZM4.63623 31.1992L6.60708 31.5394C7.20586 28.0707 7.97438 25.0185 8.90364 22.3721L7.0166 21.7095L5.12956 21.0468C4.11221 23.9441 3.29382 27.2184 2.66538 30.859L4.63623 31.1992ZM7.0166 21.7095L8.89911 22.3849C9.86137 19.7028 10.9133 17.3949 12.0462 15.447L10.3174 14.4414L8.58855 13.4359C7.3094 15.6351 6.16076 18.1725 5.1341 21.0341L7.0166 21.7095ZM10.3174 14.4414L12.043 15.4524C13.2355 13.4169 14.4032 11.6738 15.5437 10.2133L13.9673 8.98242L12.3909 7.75155C11.1192 9.38021 9.85366 11.2764 8.59172 13.4304L10.3174 14.4414ZM13.9673 8.98242L15.5414 10.2162C16.7353 8.69289 17.8397 7.41869 18.8546 6.38382L17.4268 4.9834L15.9989 3.58298C14.8556 4.74863 13.6537 6.14045 12.3932 7.74866L13.9673 8.98242ZM17.4268 4.9834L18.8679 6.37016C19.9652 5.22984 20.8942 4.21432 21.6484 3.32703L20.1245 2.03174L18.6006 0.736443C17.916 1.54187 17.0465 2.49411 15.9856 3.59664L17.4268 4.9834ZM20.1245 2.03174V4.03174H30.1221V2.03174V0.0317383H20.1245V2.03174ZM30.1221 2.03174L28.6188 0.712559C27.2914 2.22518 26.7573 4.20383 26.7573 6.37988H28.7573H30.7573C30.7573 4.83198 31.1331 3.91187 31.6253 3.35092L30.1221 2.03174ZM28.7573 6.37988H26.7573C26.7573 7.38092 26.9142 8.88985 27.19 10.8204L29.1699 10.5376L31.1498 10.2548C30.8755 8.33443 30.7573 7.07156 30.7573 6.37988H28.7573ZM29.1699 10.5376L27.1885 10.8098L27.982 16.5861L29.9634 16.314L31.9448 16.0418L31.1513 10.2654L29.1699 10.5376ZM29.9634 16.314L27.9841 16.6012C29.4365 26.6089 30.818 34.5183 32.131 40.3062C32.7871 43.1984 33.4338 45.5955 34.0749 47.4758C34.6973 49.3011 35.3763 50.8318 36.173 51.8351L37.7393 50.5913L39.3055 49.3475C38.9596 48.912 38.4577 47.9353 37.8608 46.1849C37.2827 44.4893 36.6717 42.242 36.0319 39.4213C34.7529 33.7834 33.389 25.993 31.9426 16.0267L29.9634 16.314ZM37.7393 50.5913V48.5913H26.6626V50.5913V52.5913H37.7393V50.5913ZM12.3486 20.7891L13.0666 22.6558C13.656 22.4291 14.2795 22.313 14.9512 22.313V20.313V18.313C13.8031 18.313 12.6917 18.5143 11.6307 18.9224L12.3486 20.7891ZM14.9512 20.313V22.313C15.7715 22.313 16.4666 22.3705 17.0474 22.473L17.395 20.5034L17.7426 18.5339C16.8846 18.3824 15.9505 18.313 14.9512 18.313V20.313ZM17.395 20.5034L17.0571 22.4747C17.6473 22.5758 18.2355 22.7454 18.8235 22.9875L19.585 21.1382L20.3465 19.2888C19.4956 18.9385 18.6238 18.6849 17.7329 18.5322L17.395 20.5034ZM19.585 21.1382L18.8687 23.0055C20.0826 23.4711 21.0825 24.2004 21.8978 25.2154L23.457 23.9629L25.0163 22.7104C23.758 21.144 22.1765 19.9901 20.3012 19.2708L19.585 21.1382ZM23.457 23.9629L25.4216 23.5883C24.385 18.1515 23.7498 14.8269 23.5165 13.6181L21.5527 13.9971L19.589 14.376C19.8212 15.5794 20.4554 18.8986 21.4924 24.3375L23.457 23.9629ZM21.5527 13.9971L23.5139 13.6048L22.4031 8.05064L20.4419 8.44287L18.4807 8.8351L19.5916 14.3893L21.5527 13.9971ZM20.4419 8.44287L18.9092 7.15807L17.1001 9.31628L18.6328 10.6011L20.1656 11.8859L21.9746 9.72767L20.4419 8.44287ZM18.6328 10.6011L17.0964 9.32071C14.434 12.5156 12.2417 16.072 10.5185 19.9825L12.3486 20.7891L14.1788 21.5956C15.7563 18.0159 17.7535 14.7803 20.1693 11.8814L18.6328 10.6011ZM63.5425 50.5913L61.5837 50.1871L61.0876 52.5913H63.5425V50.5913ZM63.8916 45.6084L61.8944 45.7135L61.8971 45.7658L61.9026 45.8178L63.8916 45.6084ZM63.7646 44.3389L61.7729 44.5199L61.7775 44.571L61.7848 44.6217L63.7646 44.3389ZM63.5742 42.8154L61.5864 43.0363L61.5911 43.078L61.5975 43.1195L63.5742 42.8154ZM63.3838 40.8477L65.3765 40.6769L65.3756 40.6665L65.3746 40.6561L63.3838 40.8477ZM58.2104 28.3745L59.6903 27.0292L59.6884 27.027L58.2104 28.3745ZM53.9575 25.1055L53.0631 26.8943L53.0731 26.8993L53.0831 26.9042L53.9575 25.1055ZM47.9272 24.1533L47.4605 22.2085L46.381 22.4676L46.0299 23.5209L47.9272 24.1533ZM46.6895 42.9741L44.7331 43.3898L44.7356 43.4015L44.7382 43.4131L46.6895 42.9741ZM49.3237 50.623V52.623H52.4532L51.1388 49.783L49.3237 50.623ZM39.834 50.623L37.977 49.8803L36.8799 52.623H39.834V50.623ZM41.5161 31.1992L43.4866 31.5414L43.487 31.5394L41.5161 31.1992ZM43.8965 21.7095L42.0139 21.0341L42.0094 21.0468L43.8965 21.7095ZM47.1973 14.4414L45.4716 13.4304L45.4684 13.4359L47.1973 14.4414ZM50.8472 8.98242L49.2731 7.74866L49.2708 7.75155L50.8472 8.98242ZM54.3066 4.9834L55.7345 6.38382L55.7412 6.37702L55.7478 6.37016L54.3066 4.9834ZM57.0044 2.03174V0.0317383H56.0795L55.4805 0.736443L57.0044 2.03174ZM67.002 2.03174L68.5052 3.35092L71.418 0.0317383H67.002V2.03174ZM66.0498 10.5376L68.0312 10.2654L68.0297 10.2548L66.0498 10.5376ZM66.8433 16.314L64.8619 16.5861L64.8629 16.5937L64.864 16.6012L66.8433 16.314ZM74.6191 50.5913V52.5913H78.7613L76.1854 49.3475L74.6191 50.5913ZM49.2285 20.7891L47.3983 19.9825L45.4599 24.3814L49.9465 22.6558L49.2285 20.7891ZM54.2749 20.5034L53.9273 22.473L53.937 22.4747L54.2749 20.5034ZM56.4648 21.1382L55.7033 22.9875L55.7259 22.9968L55.7486 23.0055L56.4648 21.1382ZM60.3369 23.9629L58.7777 25.2154L62.3015 23.5883L60.3369 23.9629ZM58.4326 13.9971L60.3964 13.6181L60.3938 13.6048L58.4326 13.9971ZM57.3218 8.44287L59.2829 8.05064L58.4658 3.96478L55.789 7.15807L57.3218 8.44287ZM55.5127 10.6011L53.9799 9.31627L53.9763 9.32071L55.5127 10.6011ZM63.5425 50.5913L65.5012 50.9955C65.7868 49.6115 65.9551 48.4 65.9551 47.4175H63.9551H61.9551C61.9551 48.0007 61.8483 48.9051 61.5837 50.1871L63.5425 50.5913ZM63.9551 47.4175H65.9551C65.9551 46.5975 65.9343 45.9091 65.8806 45.399L63.8916 45.6084L61.9026 45.8178C61.9335 46.1118 61.9551 46.6293 61.9551 47.4175H63.9551ZM63.8916 45.6084L65.8888 45.5033C65.8642 45.0355 65.8155 44.5527 65.7445 44.056L63.7646 44.3389L61.7848 44.6217C61.8407 45.0137 61.8767 45.3773 61.8944 45.7135L63.8916 45.6084ZM63.7646 44.3389L65.7564 44.1578C65.7097 43.6443 65.6407 43.0949 65.551 42.5113L63.5742 42.8154L61.5975 43.1195C61.677 43.6363 61.7349 44.1025 61.7729 44.5199L63.7646 44.3389ZM63.5742 42.8154L65.562 42.5946C65.5008 42.0439 65.4389 41.4053 65.3765 40.6769L63.3838 40.8477L61.3911 41.0185C61.4556 41.7712 61.5207 42.4444 61.5864 43.0363L63.5742 42.8154ZM63.3838 40.8477L65.3746 40.6561C64.8532 35.2382 62.9861 30.6546 59.6903 27.0292L58.2104 28.3745L56.7306 29.7199C59.3592 32.6114 60.9411 36.3432 61.393 41.0392L63.3838 40.8477ZM58.2104 28.3745L59.6884 27.027C58.231 25.4286 56.6147 24.1734 54.8319 23.3067L53.9575 25.1055L53.0831 26.9042C54.3472 27.5187 55.5662 28.4428 56.7325 29.722L58.2104 28.3745ZM53.9575 25.1055L54.8519 23.3166C53.2224 22.5019 51.633 21.9629 50.1807 21.9629V23.9629V25.9629C50.7173 25.9629 51.6457 26.1856 53.0631 26.8943L53.9575 25.1055ZM50.1807 23.9629V21.9629C49.1527 21.9629 48.2174 22.0269 47.4605 22.2085L47.9272 24.1533L48.394 26.0981C48.6951 26.0258 49.262 25.9629 50.1807 25.9629V23.9629ZM47.9272 24.1533L46.0299 23.5209C44.7747 27.2863 44.1499 31.2137 44.1499 35.2935H46.1499H48.1499C48.1499 31.6291 48.71 28.1298 49.8246 24.7858L47.9272 24.1533ZM46.1499 35.2935H44.1499C44.1499 38.753 44.3283 41.4847 44.7331 43.3898L46.6895 42.9741L48.6458 42.5584C48.3312 41.0781 48.1499 38.6894 48.1499 35.2935H46.1499ZM46.6895 42.9741L44.7382 43.4131C45.3431 46.1013 46.2693 48.785 47.5087 51.4631L49.3237 50.623L51.1388 49.783C50.0084 47.3406 49.1784 44.9251 48.6407 42.5351L46.6895 42.9741ZM49.3237 50.623V48.623H39.834V50.623V52.623H49.3237V50.623ZM39.834 50.623L41.6909 51.3658C42.0547 50.4565 42.265 49.2389 42.3963 47.861C42.5314 46.4417 42.5957 44.6908 42.5957 42.625H40.5957H38.5957C38.5957 44.6217 38.533 46.2351 38.4143 47.4818C38.2916 48.7699 38.1211 49.5201 37.977 49.8803L39.834 50.623ZM40.5957 42.625H42.5957C42.5957 38.6406 42.8951 34.9477 43.4866 31.5414L41.5161 31.1992L39.5456 30.857C38.9099 34.5178 38.5957 38.4421 38.5957 42.625H40.5957ZM41.5161 31.1992L43.487 31.5394C44.0857 28.0707 44.8543 25.0185 45.7835 22.3721L43.8965 21.7095L42.0094 21.0468C40.9921 23.9441 40.1737 27.2184 39.5453 30.859L41.5161 31.1992ZM43.8965 21.7095L45.779 22.3849C46.7413 19.7028 47.7931 17.3949 48.9261 15.447L47.1973 14.4414L45.4684 13.4359C44.1893 15.6351 43.0406 18.1725 42.014 21.0341L43.8965 21.7095ZM47.1973 14.4414L48.9229 15.4524C50.1154 13.4169 51.2831 11.6738 52.4235 10.2133L50.8472 8.98242L49.2708 7.75155C47.9991 9.38021 46.7335 11.2764 45.4716 13.4304L47.1973 14.4414ZM50.8472 8.98242L52.4213 10.2162C53.6152 8.69289 54.7196 7.41869 55.7345 6.38382L54.3066 4.9834L52.8788 3.58298C51.7355 4.74863 50.5335 6.14045 49.2731 7.74866L50.8472 8.98242ZM54.3066 4.9834L55.7478 6.37016C56.8451 5.22984 57.7741 4.21432 58.5283 3.32703L57.0044 2.03174L55.4805 0.736443C54.7959 1.54187 53.9264 2.49411 52.8655 3.59664L54.3066 4.9834ZM57.0044 2.03174V4.03174H67.002V2.03174V0.0317383H57.0044V2.03174ZM67.002 2.03174L65.4987 0.712559C64.1713 2.22518 63.6372 4.20383 63.6372 6.37988H65.6372H67.6372C67.6372 4.83198 68.0129 3.91187 68.5052 3.35092L67.002 2.03174ZM65.6372 6.37988H63.6372C63.6372 7.38092 63.7941 8.88985 64.0699 10.8204L66.0498 10.5376L68.0297 10.2548C67.7554 8.33443 67.6372 7.07156 67.6372 6.37988H65.6372ZM66.0498 10.5376L64.0684 10.8098L64.8619 16.5861L66.8433 16.314L68.8247 16.0418L68.0312 10.2654L66.0498 10.5376ZM66.8433 16.314L64.864 16.6012C66.3164 26.6089 67.6979 34.5183 69.0109 40.3062C69.667 43.1984 70.3136 45.5955 70.9548 47.4758C71.5772 49.3011 72.2562 50.8318 73.0529 51.8351L74.6191 50.5913L76.1854 49.3475C75.8395 48.912 75.3376 47.9353 74.7407 46.1849C74.1626 44.4893 73.5516 42.242 72.9117 39.4213C71.6328 33.7834 70.2689 25.993 68.8225 16.0267L66.8433 16.314ZM74.6191 50.5913V48.5913H63.5425V50.5913V52.5913H74.6191V50.5913ZM49.2285 20.7891L49.9465 22.6558C50.5359 22.4291 51.1594 22.313 51.8311 22.313V20.313V18.313C50.683 18.313 49.5715 18.5143 48.5106 18.9224L49.2285 20.7891ZM51.8311 20.313V22.313C52.6514 22.313 53.3465 22.3705 53.9273 22.473L54.2749 20.5034L54.6225 18.5339C53.7645 18.3824 52.8304 18.313 51.8311 18.313V20.313ZM54.2749 20.5034L53.937 22.4747C54.5272 22.5758 55.1154 22.7454 55.7033 22.9875L56.4648 21.1382L57.2263 19.2888C56.3755 18.9385 55.5037 18.6849 54.6128 18.5322L54.2749 20.5034ZM56.4648 21.1382L55.7486 23.0055C56.9625 23.4711 57.9624 24.2004 58.7777 25.2154L60.3369 23.9629L61.8962 22.7104C60.6379 21.144 59.0564 19.9901 57.1811 19.2708L56.4648 21.1382ZM60.3369 23.9629L62.3015 23.5883C61.2649 18.1515 60.6297 14.8269 60.3964 13.6181L58.4326 13.9971L56.4688 14.376C56.7011 15.5794 57.3353 18.8986 58.3723 24.3375L60.3369 23.9629ZM58.4326 13.9971L60.3938 13.6048L59.2829 8.05064L57.3218 8.44287L55.3606 8.8351L56.4715 14.3893L58.4326 13.9971ZM57.3218 8.44287L55.789 7.15807L53.98 9.31628L55.5127 10.6011L57.0454 11.8859L58.8545 9.72767L57.3218 8.44287ZM55.5127 10.6011L53.9763 9.32071C51.3139 12.5156 49.1216 16.072 47.3983 19.9825L49.2285 20.7891L51.0587 21.5956C52.6362 18.0159 54.6334 14.7803 57.0491 11.8814L55.5127 10.6011ZM100.486 9.0459L98.6801 8.18603L98.6717 8.20372L98.6636 8.22156L100.486 9.0459ZM101.438 6.41162L99.5063 5.89336L99.5004 5.91547L99.4949 5.93771L101.438 6.41162ZM101.311 2V0H97.4247L99.6836 3.16248L101.311 2ZM111.118 2L112.759 3.14359L114.95 0H111.118V2ZM109.88 4.31689L111.733 5.07021L111.737 5.05968L109.88 4.31689ZM108.706 7.20508L110.554 7.96955L110.559 7.95838L108.706 7.20508ZM100.295 17.7104L99.2198 16.0243L98.259 16.6372L98.2965 17.7763L100.295 17.7104ZM104.834 37.7056L106.665 36.9014L106.661 36.891L104.834 37.7056ZM113.721 50.5913V52.5913H119.219L115.006 49.0588L113.721 50.5913ZM102.771 50.5913L101.313 51.9605L101.906 52.5913H102.771V50.5913ZM96.5186 33.5161L98.4968 33.2219L98.4953 33.212L96.5186 33.5161ZM95.3442 22.8521L97.3382 22.6971L97.3381 22.6957L95.3442 22.8521ZM94.3604 20.3765L92.8948 21.7374L92.92 21.7645L92.9461 21.7907L94.3604 20.3765ZM88.9648 20.6304L87.2165 19.6591L87.2112 19.6687L88.9648 20.6304ZM89.4409 49.2583L87.5248 49.8314L87.5253 49.833L89.4409 49.2583ZM89.917 50.5913V52.5913H92.8961L91.7681 49.834L89.917 50.5913ZM79.2847 50.5913L77.4414 49.8152L76.2725 52.5913H79.2847V50.5913ZM80.459 46.5605L78.4727 46.3269L78.4704 46.3461L78.4685 46.3654L80.459 46.5605ZM80.7764 43.1011L82.7716 43.2387L82.7718 43.2364L80.7764 43.1011ZM80.7764 19.1387L78.778 19.2186L78.778 19.219L80.7764 19.1387ZM80.4272 10.4106L78.4288 10.4901L78.4288 10.4906L80.4272 10.4106ZM79.2212 3.65039L80.9984 2.7331L80.9956 2.72768L79.2212 3.65039ZM78.2056 2.03174V0.0317383H74.2669L76.5908 3.21177L78.2056 2.03174ZM90.647 2.03174L92.2322 3.25116L94.7087 0.0317383H90.647V2.03174ZM88.9966 5.11035L87.0641 4.59503L87.0593 4.61324L87.0547 4.63154L88.9966 5.11035ZM88.9648 14.7271L87.1932 15.6551L87.2114 15.6899L87.231 15.724L88.9648 14.7271ZM91.5674 16.0283L91.5335 18.028L91.5504 18.0283H91.5674V16.0283ZM94.6777 15.457L95.5159 17.2729L95.5259 17.2683L95.5359 17.2636L94.6777 15.457ZM98.9941 11.6484L100.619 12.8148L100.626 12.8051L100.633 12.7954L98.9941 11.6484ZM100.486 9.0459L102.292 9.90577C102.768 8.9059 103.134 7.89879 103.381 6.88553L101.438 6.41162L99.4949 5.93771C99.3189 6.65948 99.0503 7.40855 98.6801 8.18603L100.486 9.0459ZM101.438 6.41162L103.37 6.92988C103.643 5.91281 103.787 4.9024 103.787 3.9043H101.787H99.7871C99.7871 4.51427 99.6989 5.17541 99.5063 5.89336L101.438 6.41162ZM101.787 3.9043H103.787C103.787 2.86309 103.593 1.75432 102.938 0.837524L101.311 2L99.6836 3.16248C99.6635 3.13435 99.7871 3.29512 99.7871 3.9043H101.787ZM101.311 2V4H111.118V2V0H101.311V2ZM111.118 2L109.477 0.856415C108.898 1.6881 108.415 2.59632 108.023 3.57411L109.88 4.31689L111.737 5.05968C112.023 4.34476 112.365 3.70839 112.759 3.14359L111.118 2ZM109.88 4.31689L108.028 3.56359L106.853 6.45178L108.706 7.20508L110.559 7.95838L111.733 5.07019L109.88 4.31689ZM108.706 7.20508L106.858 6.44062C105.064 10.7765 102.504 13.929 99.2198 16.0243L100.295 17.7104L101.371 19.3966C105.45 16.7947 108.497 12.9436 110.554 7.96954L108.706 7.20508ZM100.295 17.7104L98.2965 17.7763C98.5375 25.0935 100.106 32.0136 103.007 38.5201L104.834 37.7056L106.661 36.891C103.976 30.8715 102.519 24.4615 102.294 17.6446L100.295 17.7104ZM104.834 37.7056L103.003 38.5097C105.597 44.4175 108.717 49.006 112.436 52.1238L113.721 50.5913L115.006 49.0588C111.911 46.4637 109.107 42.4617 106.665 36.9014L104.834 37.7056ZM113.721 50.5913V48.5913H102.771V50.5913V52.5913H113.721V50.5913ZM102.771 50.5913L104.229 49.2221C101.727 46.5582 99.7116 41.3903 98.4968 33.2219L96.5186 33.5161L94.5403 33.8103C95.7799 42.1458 97.933 48.3614 101.313 51.9605L102.771 50.5913ZM96.5186 33.5161L98.4953 33.212C98.0395 30.249 97.6529 26.7463 97.3382 22.6971L95.3442 22.8521L93.3503 23.007C93.6703 27.1251 94.0667 30.7317 94.5418 33.8202L96.5186 33.5161ZM95.3442 22.8521L97.3381 22.6957C97.229 21.3043 96.7825 19.9702 95.7746 18.9622L94.3604 20.3765L92.9461 21.7907C93.0808 21.9254 93.2902 22.2416 93.3504 23.0084L95.3442 22.8521ZM94.3604 20.3765L95.8259 19.0156C94.805 17.9161 93.4314 17.4878 92.0117 17.4878V19.4878V21.4878C92.6233 21.4878 92.8154 21.6519 92.8948 21.7374L94.3604 20.3765ZM92.0117 19.4878V17.4878C90.9859 17.4878 89.8728 17.5663 89.0291 17.966L89.8853 19.7734L90.7414 21.5809C90.6779 21.611 90.7264 21.5761 90.9846 21.5414C91.2227 21.5094 91.5592 21.4878 92.0117 21.4878V19.4878ZM89.8853 19.7734L89.0291 17.966C88.2582 18.3311 87.6354 18.9051 87.2165 19.6591L88.9648 20.6304L90.7132 21.6017C90.7155 21.5974 90.7173 21.5945 90.7184 21.5928C90.719 21.592 90.7194 21.5914 90.7197 21.591C90.72 21.5906 90.7201 21.5905 90.7201 21.5905C90.7201 21.5905 90.72 21.5906 90.7198 21.5908C90.7196 21.5911 90.7193 21.5914 90.7189 21.5918C90.7182 21.5926 90.7173 21.5935 90.7165 21.5943C90.7145 21.5961 90.7141 21.5961 90.7167 21.5944C90.7194 21.5926 90.727 21.5877 90.7414 21.5809L89.8853 19.7734ZM88.9648 20.6304L87.2112 19.6687C86.8356 20.3537 86.6691 21.2249 86.574 22.0304C86.4713 22.9003 86.4253 23.9649 86.4253 25.2007H88.4253H90.4253C90.4253 24.0455 90.4692 23.1529 90.5464 22.4994C90.6311 21.7815 90.7344 21.563 90.7185 21.592L88.9648 20.6304ZM88.4253 25.2007H86.4253C86.4253 32.0992 86.51 37.5797 86.681 41.6303C86.7664 43.6545 86.8742 45.3406 87.0063 46.6778C87.1346 47.9774 87.2964 49.0676 87.5248 49.8314L89.4409 49.2583L91.3571 48.6852C91.2469 48.317 91.1124 47.5558 90.9869 46.2846C90.8651 45.051 90.7612 43.4469 90.6774 41.4615C90.5099 37.4929 90.4253 32.0766 90.4253 25.2007H88.4253ZM89.4409 49.2583L87.5253 49.833C87.6731 50.3258 87.8543 50.8313 88.0659 51.3486L89.917 50.5913L91.7681 49.834C91.5988 49.4203 91.4626 49.0372 91.3566 48.6836L89.4409 49.2583ZM89.917 50.5913V48.5913H79.2847V50.5913V52.5913H89.917V50.5913ZM79.2847 50.5913L81.1279 51.3674C81.8417 49.6723 82.3158 48.1186 82.4494 46.7557L80.459 46.5605L78.4685 46.3654C78.3906 47.1607 78.0818 48.2941 77.4414 49.8152L79.2847 50.5913ZM80.459 46.5605L82.4453 46.7942C82.5764 45.6793 82.6851 44.4939 82.7716 43.2387L80.7764 43.1011L78.7811 42.9635C78.6984 44.1627 78.5954 45.2836 78.4727 46.3269L80.459 46.5605ZM80.7764 43.1011L82.7718 43.2364C82.9455 40.6746 83.0303 37.2699 83.0303 33.04H81.0303H79.0303C79.0303 37.2314 78.9458 40.5341 78.7809 42.9658L80.7764 43.1011ZM81.0303 33.04H83.0303C83.0303 27.9614 82.9453 23.3004 82.7747 19.0583L80.7764 19.1387L78.778 19.219C78.946 23.3982 79.0303 28.0048 79.0303 33.04H81.0303ZM80.7764 19.1387L82.7748 19.0587L82.4257 10.3307L80.4272 10.4106L78.4288 10.4906L78.778 19.2186L80.7764 19.1387ZM80.4272 10.4106L82.4257 10.3312C82.2976 7.10734 81.8929 4.46609 80.9984 2.7331L79.2212 3.65039L77.4439 4.56768C77.9037 5.45839 78.303 7.32398 78.4288 10.4901L80.4272 10.4106ZM79.2212 3.65039L80.9956 2.72768C80.6679 2.09742 80.2738 1.47216 79.8204 0.851704L78.2056 2.03174L76.5908 3.21177C76.9414 3.69157 77.2244 4.14542 77.4468 4.5731L79.2212 3.65039ZM78.2056 2.03174V4.03174H90.647V2.03174V0.0317383H78.2056V2.03174ZM90.647 2.03174L89.0617 0.812317C88.1153 2.04267 87.4079 3.30592 87.0641 4.59503L88.9966 5.11035L90.9291 5.62568C91.0931 5.01048 91.4859 4.22133 92.2322 3.25116L90.647 2.03174ZM88.9966 5.11035L87.0547 4.63154C86.6364 6.3281 86.4253 8.0334 86.4253 9.74414H88.4253H90.4253C90.4253 8.36569 90.595 6.98179 90.9384 5.58916L88.9966 5.11035ZM88.4253 9.74414H86.4253C86.4253 11.273 86.4563 12.454 86.5292 13.2316L88.5205 13.0449L90.5118 12.8582C90.4577 12.2817 90.4253 11.2622 90.4253 9.74414H88.4253ZM88.5205 13.0449L86.5292 13.2316C86.6089 14.0812 86.805 14.9141 87.1932 15.6551L88.9648 14.7271L90.7365 13.799C90.6592 13.6514 90.5591 13.3628 90.5118 12.8582L88.5205 13.0449ZM88.9648 14.7271L87.231 15.724C88.1678 17.3532 89.8068 17.9988 91.5335 18.028L91.5674 16.0283L91.6013 14.0286C90.8312 14.0156 90.7352 13.7936 90.6987 13.7301L88.9648 14.7271ZM91.5674 16.0283V18.0283C93.0034 18.0283 94.349 17.8115 95.5159 17.2729L94.6777 15.457L93.8396 13.6411C93.3561 13.8643 92.6281 14.0283 91.5674 14.0283V16.0283ZM94.6777 15.457L95.5359 17.2636C96.5676 16.7735 97.5142 16.1318 98.3739 15.348L97.0264 13.8701L95.6789 12.3922C95.0997 12.9202 94.4806 13.3365 93.8196 13.6505L94.6777 15.457ZM97.0264 13.8701L98.3739 15.348C99.2006 14.5942 99.9486 13.7483 100.619 12.8148L98.9941 11.6484L97.3695 10.482C96.8548 11.1989 96.2909 11.8342 95.6789 12.3922L97.0264 13.8701ZM98.9941 11.6484L100.633 12.7954C101.292 11.8534 101.852 10.8783 102.308 9.87024L100.486 9.0459L98.6636 8.22156C98.3156 8.9908 97.8812 9.75079 97.3557 10.5015L98.9941 11.6484Z" fill="#2E2E2E" mask="url(#path-1-outside-1_330_249)"/>
</svg>
