<?xml version="1.0" encoding="UTF-8"?>
<svg id="Layer_1" data-name="Layer 1" xmlns="http://www.w3.org/2000/svg" viewBox="0 0 83.04 66.77">
  <defs>
    <style>
      .cls-1 {
        fill: #231f20;
        stroke: #231f20;
        stroke-miterlimit: 10;
        stroke-width: .46px;
      }
    </style>
  </defs>
  <g>
    <path class="cls-1" d="M7.57,42.41c-.6,3.74-3.09,13.8-5.22,16.58,5-.09,9.78-1.24,15.5-3.48-2.1-11.93-1.84-23.68-.09-35.67,4.72,7.96,6.96,18.23,5.71,27.4,4.17,2.47,8.06,5.09,10.97,8.94-1.37-17.43-9.15-28.9-13.7-47.41L12.21,3s-.87,15.92-4.64,39.41Z"/>
    <polygon class="cls-1" points="24.86 34.16 11.21 39.84 9.32 35.3 22.6 28.74 24.86 34.16"/>
  </g>
  <g>
    <path class="cls-1" d="M54.25,25.3c.74-3.72,2.06-13.79,3.43-17.07-5.3,2.04-7.2,3.67-13.22,3.6,1.66,12,.95,23.73-1.25,35.64-4.42-8.13-6.27-18.48-4.68-27.6-4.07-2.63-7.86-5.39-10.63-9.34.71,17.46,8.06,29.22,11.92,47.89l8.31,6.1s1.47-15.88,6.11-39.21Z"/>
    <polygon class="cls-1" points="36.66 32.9 50.51 27.73 52.22 32.33 38.71 38.39 36.66 32.9"/>
  </g>
  <g>
    <path class="cls-1" d="M63,31.82c3.06-.92,4.57-2.22,7.74-2.27-1.1,4.39-3.87,12.08-3.7,12.11l7.57,7.23c.07-7-.53-14.29,2.59-20.16.24-.44.32-.98.25-1.47-.23-1.53-2.03-2.72-2.96-3.43-3.43.86-6.38,2.41-9.84,3.14l-1.64,4.85Z"/>
    <path class="cls-1" d="M60.14,6.61c4.07-2.4,6.01-3.43,10.56-4.35-5.71,17.96-7.74,32.45-5.44,52.4-4.56,1.85-9.04,4.06-13.24,6.64-.12-3.07-.07-6.04.89-8.96,2.67-8.07,4.64-16.24,5.62-24.39,1.17-9.79,1.66-11.31,1.62-21.35Z"/>
    <path class="cls-1" d="M61.81,26.16c.4-.97,1.19-1.72,1.93-2.47,3.78-3.84,6.74-8.39,8.82-13.37,2.73-.47,5.41-.9,8.14-1.37-.86,3.91-3.56,7.16-6.44,9.95s-6.06,5.33-8.34,8.62c-1.37-.1-3.17-.34-4.1-1.35Z"/>
  </g>
</svg>